HIERARCHY
ROOT hip
{
	OFFSET 0.000000 0.000000 0.000000 
	CHANNELS 6 Xposition Yposition Zposition Xrotation Zrotation Yrotation
	JOINT abdomen
	{
		OFFSET 0.000000 3.402643 0.000000 
		CHANNELS 3 Xrotation Zrotation Yrotation
		JOINT chest
		{
			OFFSET 0.000000 8.438565 -0.680529 
			CHANNELS 3 Xrotation Zrotation Yrotation
			JOINT neck
			{
				OFFSET 0.000000 10.207942 -0.272212 
				CHANNELS 3 Xrotation Zrotation Yrotation
				JOINT head
				{
					OFFSET 0.000000 3.130431 0.000000 
					CHANNELS 3 Xrotation Zrotation Yrotation
					End Site
					{
						OFFSET 0.000000 3.130435 0.000000 
					}
				}
			}
			JOINT lCollar
			{
				OFFSET 3.470700 6.669187 -0.816635 
				CHANNELS 3 Yrotation Zrotation Xrotation
				JOINT lShldr
				{
					OFFSET 3.198488 0.000000 0.000000 
					CHANNELS 3 Zrotation Yrotation Xrotation
					JOINT lForeArm
					{
						OFFSET 10.139888 0.000000 0.000000 
						CHANNELS 3 Yrotation Zrotation Xrotation
						JOINT lHand
						{
							OFFSET 8.370511 0.000000 0.000000 
							CHANNELS 3 Zrotation Yrotation Xrotation
							End Site
							{
								OFFSET 4.083176 0.000000 0.000000 
							}
						}
					}
				}
			}
			JOINT rCollar
			{
				OFFSET -3.470700 6.669187 -0.816635 
				CHANNELS 3 Yrotation Zrotation Xrotation
				JOINT rShldr
				{
					OFFSET -3.198488 0.000000 0.000000 
					CHANNELS 3 Zrotation Yrotation Xrotation
					JOINT rForeArm
					{
						OFFSET -10.139888 0.000000 0.000000 
						CHANNELS 3 Yrotation Zrotation Xrotation
						JOINT rHand
						{
							OFFSET -8.370511 0.000000 0.000000 
							CHANNELS 3 Zrotation Yrotation Xrotation
							End Site
							{
								OFFSET -4.083176 0.000000 0.000000 
							}
						}
					}
				}
			}
		}
	}
	JOINT lThigh
	{
		OFFSET 5.308129 -1.633274 1.361059 
		CHANNELS 3 Xrotation Zrotation Yrotation
		JOINT lShin
		{
			OFFSET -2.041588 -20.007561 0.000000 
			CHANNELS 3 Xrotation Zrotation Yrotation
			JOINT lFoot
			{
				OFFSET 0.000000 -19.190928 -1.224953 
				CHANNELS 3 Xrotation Yrotation Zrotation
				End Site
				{
					OFFSET 0.000000 -2.449906 4.627600 
				}
			}
		}
	}
	JOINT rThigh
	{
		OFFSET -5.308129 -1.633274 1.361059 
		CHANNELS 3 Xrotation Zrotation Yrotation
		JOINT rShin
		{
			OFFSET 2.041588 -20.007561 0.000000 
			CHANNELS 3 Xrotation Zrotation Yrotation
			JOINT rFoot
			{
				OFFSET 0.000000 -19.190928 -1.224953 
				CHANNELS 3 Xrotation Yrotation Zrotation
				End Site
				{
					OFFSET 0.000000 -2.449906 4.627600 
				}
			}
		}
	}
}
MOTION
Frames: 13
Frame Time: 0.016667
-0.048969 49.705593 -4.389436 -2.843024 -5.171354 10.198092 8.255935 -1.815896 -1.358287 -0.551599 12.292709 -3.457283 25.656334 25.040276 -13.731253 4.950982 11.932731 -17.589300 -13.213660 1.153181 0.038021 22.737091 8.434342 -68.483353 -95.895927 5.789787 12.182854 19.689137 -3.789626 -15.424877 7.625838 20.367792 -4.268111 39.971004 -26.485001 -5.287012 65.924973 -9.297828 13.077676 -13.409427 9.107605 -8.871473 -35.951229 -6.120150 -16.948671 53.736977 -0.751990 -1.721464 -8.565687 10.222769 -1.997255 -2.303915 -2.830803 -4.721505 15.222466 -0.185443 0.550658 -3.095542 3.830652 3.608278 
-0.031993 50.004036 -4.099760 -2.078111 -4.439169 9.598778 8.255935 -1.815896 -1.358287 -2.165162 11.942424 -4.131124 24.994051 25.305586 -14.164427 6.062384 12.188034 -17.255758 -14.027834 1.170681 -1.440333 26.748672 11.853834 -67.377701 -92.184540 6.177580 12.021241 19.941029 -2.689650 -15.454420 7.276777 19.846210 -5.731029 43.086727 -31.287106 -13.788034 67.878098 -9.072325 13.251243 -14.190257 8.166795 -3.589097 -32.092663 -6.305330 -16.738247 41.957539 -0.911484 -1.361194 -8.491125 12.606748 -1.850951 -1.043088 -3.089125 -3.265584 12.059201 -0.536832 0.413246 -1.968727 3.349986 3.764501 
-0.096142 50.103416 -3.808746 -1.584504 -4.442564 8.541287 8.255935 -1.815896 -1.358287 -3.247053 11.929235 -4.360951 24.122868 25.649639 -13.976119 6.267026 12.507519 -17.096931 -14.220219 1.420806 -2.442557 31.218815 14.791597 -65.719498 -87.665939 6.753153 11.792065 20.758320 -2.305033 -15.046567 7.431071 19.716301 -6.821648 45.013302 -35.392498 -22.425009 69.657318 -8.869757 13.408198 -13.868479 7.819089 -2.112686 -28.046345 -5.410120 -16.277143 29.456837 -1.084021 -1.308179 -7.434592 13.610784 -1.877094 -0.390423 -2.866398 -1.799346 9.986457 -0.380653 0.325099 -1.562595 2.580910 3.653996 
-0.199513 50.100811 -3.518685 -1.090629 -4.701612 6.956574 8.255935 -1.815896 -1.358287 -4.145960 11.912469 -4.180914 23.300831 25.879948 -13.675536 6.111944 12.859513 -17.021160 -14.040392 1.632028 -3.354157 36.001442 17.625669 -63.479527 -83.193947 7.011721 11.371436 21.563066 -1.766212 -14.433414 7.930013 19.569878 -7.818554 47.723106 -39.266296 -31.780209 71.223526 -8.639439 13.384806 -13.118730 7.765863 -1.574928 -24.007624 -3.669463 -16.035707 16.975916 -0.898053 -0.796073 -6.430771 13.926811 -2.472682 0.135637 -2.452405 -0.323270 8.591070 -0.341722 0.288389 -1.531535 2.513300 3.804252 
-0.324675 50.014069 -3.251698 -0.845493 -5.203086 5.216355 8.255935 -1.815896 -1.358287 -4.687849 12.071502 -3.964687 22.333090 26.302107 -13.379224 5.765436 13.038971 -16.861921 -13.798167 2.082426 -3.851335 40.271816 19.728624 -60.961910 -78.517891 7.414339 11.236529 22.138296 -1.147103 -13.282824 8.382610 19.808924 -8.447333 47.630390 -42.797939 -37.883301 72.827927 -8.457806 13.509609 -12.133514 7.215024 -0.961726 -20.499388 -1.920517 -15.959541 6.901492 -1.054153 -0.502450 -5.730383 14.240567 -2.404962 0.312847 -1.775175 0.918202 7.482534 -0.420876 0.265132 -1.897920 2.992213 3.818783 
-0.458613 49.869484 -3.019120 -0.494244 -5.831184 3.130848 8.255935 -1.815896 -1.358287 -5.231531 12.418015 -3.568464 21.374262 26.408709 -12.744266 5.236579 13.245327 -16.584532 -13.374280 2.357462 -4.428465 44.557739 21.600906 -58.525146 -73.964279 7.818215 10.904091 22.367176 -0.550629 -12.134993 9.007592 19.838764 -9.157218 48.272350 -46.404163 -44.470810 74.247322 -8.263827 13.615480 -11.159520 6.665456 -0.371796 -17.488537 0.185742 -15.775764 -2.637583 -1.060774 -0.403313 -5.685723 14.472006 -2.306224 0.115176 -0.968728 2.184943 7.010363 -0.410990 0.591091 -2.357711 3.343246 3.988618 
-0.584285 49.690296 -2.839468 -0.002996 -6.580555 1.218626 8.255935 -1.815896 -1.358287 -5.413073 12.765061 -3.103493 20.620388 26.697617 -11.974260 4.516361 13.305389 -16.388142 -12.889509 2.719028 -4.638094 46.623337 22.546682 -57.372250 -70.546745 8.056248 10.474496 22.072994 0.209779 -11.330651 9.610375 20.089619 -9.486267 44.963013 -49.232044 -45.163643 75.131134 -8.166569 13.685461 -10.454625 5.967938 0.956467 -15.292713 1.943350 -15.691987 -7.912376 -0.722574 -0.182709 -5.884907 15.004581 -2.398142 -0.123506 -0.194719 3.275425 6.989631 -0.430248 0.589543 -3.352953 4.310585 3.861057 
-0.696214 49.503536 -2.713417 0.352704 -7.216251 -0.709822 8.255935 -1.815896 -1.358287 -5.788063 13.110962 -2.695770 19.625397 26.673244 -11.456290 3.782053 13.192051 -16.249189 -12.432244 3.110689 -5.028572 48.868484 23.467772 -56.391064 -68.223282 8.210724 10.297416 21.709654 0.357087 -11.320511 10.221560 20.307507 -10.050358 41.370354 -52.379337 -45.621365 75.836777 -8.037597 13.568213 -9.729786 4.897298 1.956743 -13.964905 3.652406 -15.729900 -13.505898 -0.890069 -0.114572 -6.249018 15.527803 -2.502523 -0.360708 0.226653 4.184686 6.801625 -0.030643 0.257793 -3.882555 5.034533 3.990205 
-0.782156 49.339516 -2.649686 0.839766 -7.707742 -2.473544 8.255935 -1.815896 -1.358287 -5.798622 13.465362 -2.378139 18.839769 26.785267 -10.642120 3.049473 13.062947 -15.758183 -11.920517 3.438753 -5.087668 48.580624 23.625360 -57.873402 -67.512306 8.273087 10.230575 22.150692 -0.020960 -12.254766 10.797786 20.578968 -10.224454 35.802147 -54.271523 -42.058601 76.743927 -7.975094 13.795075 -9.069871 3.563273 2.107768 -13.520929 4.530729 -15.437428 -14.931931 -0.871728 -0.236911 -7.256971 15.884341 -2.396469 -1.245435 0.988746 4.860106 7.679902 -0.030746 0.291057 -4.656951 6.383200 3.858366 
-0.844894 49.211357 -2.642898 1.083669 -7.970342 -3.865566 8.255935 -1.815896 -1.358287 -5.804795 13.809759 -2.060612 18.122099 26.697496 -10.263134 2.315494 12.767823 -15.487980 -11.754609 3.778582 -5.053954 46.680550 23.493217 -60.508659 -68.038483 8.253609 10.279817 23.077238 -1.119386 -14.153514 11.006196 20.902245 -10.318954 29.911297 -55.410370 -36.981361 77.281197 -7.866521 13.842392 -8.630885 2.322228 1.691246 -14.028326 5.233695 -15.310631 -14.245198 -0.715122 -0.261996 -8.023495 16.116879 -2.400027 -2.037361 1.264906 5.344498 8.734166 -0.039055 0.320782 -5.668907 7.440213 3.999109 
-0.880819 49.145752 -2.692347 1.462009 -7.855643 -4.614089 8.255935 -1.815896 -1.358287 -5.804795 13.809759 -2.060612 17.577755 26.368790 -9.709818 1.562128 12.480233 -15.071216 -11.583480 3.932161 -5.067043 43.469677 22.695854 -64.301643 -69.655602 8.146142 10.402549 24.132147 -3.140870 -17.064194 11.206486 21.049175 -10.386435 25.840330 -55.999241 -32.047550 77.820877 -7.804030 13.871768 -8.603010 1.544889 1.069907 -14.897524 5.048271 -14.219183 -11.966522 -0.742390 -0.361020 -8.836971 15.548082 -2.128196 -2.928919 1.298611 5.621837 9.600481 -0.187339 0.353594 -6.175830 8.119904 3.787532 
-0.896571 49.132385 -2.792494 1.595139 -7.732540 -5.165137 8.255935 -1.815896 -1.358287 -5.803614 13.975582 -2.072427 16.728472 25.854242 -9.732197 0.994267 11.820808 -14.663038 -11.583480 3.932161 -5.067043 39.508121 21.734581 -68.077408 -72.157181 7.926063 10.602139 25.724670 -5.483160 -19.858473 11.206486 21.049175 -10.386435 23.703413 -55.919926 -27.933336 78.171326 -7.773159 13.892128 -8.983917 1.266790 0.383147 -16.643984 4.355160 -13.233341 -7.727032 -0.497948 -0.034116 -10.011754 15.309726 -2.551603 -3.803561 1.149949 5.533024 11.008965 -0.226714 0.558239 -6.951252 8.684116 3.884270 
-0.895973 49.179363 -2.938581 1.727688 -7.111474 -5.029122 8.255935 -1.815896 -1.358287 -5.617012 13.810172 -2.010866 16.254721 25.309822 -9.620475 0.422861 11.341734 -14.197598 -11.724323 3.907471 -4.844622 34.918053 20.919062 -71.364388 -75.594345 7.668804 11.040977 27.129892 -7.722382 -22.138422 10.999538 21.109318 -10.186450 24.884439 -55.257854 -26.124273 77.977356 -7.786673 13.704056 -9.766916 1.662287 -0.187009 -18.819201 3.320519 -11.428751 -1.867296 -1.011415 -0.275313 -10.412611 14.412827 -2.334394 -4.538781 0.663891 5.451785 12.062529 -0.236695 0.605381 -7.078190 8.778163 3.970568 
